<?xml version="1.0" encoding="UTF-8" standalone="no"?>
<svg width="19px" height="11px" viewBox="0 0 19 11" version="1.1" xmlns="http://www.w3.org/2000/svg" xmlns:xlink="http://www.w3.org/1999/xlink" xmlns:sketch="http://www.bohemiancoding.com/sketch/ns">
    <title>Slice 1</title>
    <description>Created with Sketch (http://www.bohemiancoding.com/sketch)</description>
    <defs></defs>
    <g id="Page-1" stroke="none" stroke-width="1" fill="none" fill-rule="evenodd" sketch:type="MSPage">
        <path d="M1,0.833282471 L1,0 L15.0093994,0 L15.0093994,0.833282471 L8,5 L1,0.833282471 Z M9.40589404,6.00422228 L15,10.000061 L15,11 L0.990600586,11 L0.990600586,10.000061 L6.56775579,6.02167219 L8,7 L9.40589404,6.00422228 Z M14.4266429,7.8687664 L18.8695041,3.39632546 C19.0434986,3.22034746 19.0434986,2.9383827 18.8695041,2.76340457 L18.2415237,2.13048369 C18.0675291,1.95650544 17.7875379,1.95650544 17.6135433,2.13048369 L14.1116528,5.65404324 L12.3867067,3.91926009 C12.2127121,3.74528184 11.9327209,3.74528184 11.7587263,3.91926009 L11.1297459,4.55218098 C10.9567514,4.72715911 10.9567514,5.01012373 11.1297459,5.18510186 L14.1116529,7.94488525 C14.1116529,7.94488525 14.2526484,8.04374453 14.4266429,7.8687664 Z M1.06323242,7.98706055 L1.06323242,5.59375 L1.06323242,2.71044922 L6.47991943,5.41693115 L1.06323242,7.98706055 Z" id="Triangle-2" fill="#BCD514" sketch:type="MSShapeGroup"></path>
    </g>
</svg>