<?xml version="1.0" encoding="UTF-8" standalone="no"?>
<svg width="16px" height="15px" viewBox="0 0 16 15" version="1.1" xmlns="http://www.w3.org/2000/svg" xmlns:xlink="http://www.w3.org/1999/xlink" xmlns:sketch="http://www.bohemiancoding.com/sketch/ns">
    <title>Slice 1</title>
    <description>Created with Sketch (http://www.bohemiancoding.com/sketch)</description>
    <defs></defs>
    <g id="Page-1" stroke="none" stroke-width="1" fill="none" fill-rule="evenodd" sketch:type="MSPage">
        <path d="M10.899,10.1339231 L8.39,12.202444 C8.174,12.3808359 7.825,12.3808359 7.609,12.202444 L5.1,10.1339231 C4.884,9.9555312 4.535,9.9555312 4.319,10.1328919 L0,13.6893868 L0,13.968833 C0,14.4215153 0.45,15 1,15 L15,15 C15.55,15 16,14.4215153 16,13.968833 L16,13.6893868 L11.681,10.1339231 C11.465,9.9555312 11.115,9.9555312 10.899,10.1339231 L10.899,10.1339231 Z M13.1587198,9.95414162 L15.616917,12.8693469 C15.8285434,13.1206327 16,12.9986211 16,12.5962734 L16,6.40273309 C16,6.00183789 15.8285434,5.87982631 15.616917,6.12965955 L13.1587198,9.04486484 C12.9470934,9.2961506 12.9470934,9.70285587 13.1587198,9.95414162 L13.1587198,9.95414162 Z M16,6.02147546 L8.432,0.12684365 C8.215,-0.0414625702 7.865,-0.0424410947 7.648,0.124886601 L4.68193357,2.4117164 L3.37507799e-14,6.02147546 C3.37507799e-14,6.45104773 7.25242069e-07,6.02147555 0.234375,6.02147555 L4,9 L4.03125,5 L12.03125,5 L12,9 L15.71875,6.02147555 C16,6.02147555 16,6.45104773 16,6.02147546 Z M0,6.40241739 L0,12.597187 C0,12.9981617 0.171456564,13.1201975 0.383082952,12.8703147 L2.84128021,9.95453081 C3.0529066,9.70319518 3.0529066,9.29786199 2.84128021,9.04652636 L0.383082952,6.13074246 C0.171456564,5.87940682 0,6.00144262 0,6.40241739 L0,6.40241739 Z" id="Mail_4_x2C__Envelope_4" fill="#028690" sketch:type="MSShapeGroup"></path>
    </g>
</svg>