<?xml version="1.0" encoding="UTF-8" standalone="no"?>
<svg width="18px" height="18px" viewBox="0 0 18 18" version="1.1" xmlns="http://www.w3.org/2000/svg" xmlns:xlink="http://www.w3.org/1999/xlink" xmlns:sketch="http://www.bohemiancoding.com/sketch/ns">
    <title>Slice 1</title>
    <description>Created with Sketch (http://www.bohemiancoding.com/sketch)</description>
    <defs></defs>
    <g id="Page-1" stroke="none" stroke-width="1" fill="none" fill-rule="evenodd" sketch:type="MSPage">
        <path d="M16.1900891,5.48785897 C16.7205443,6.57151958 17,7.7648157 17,9 C17,13.4182782 13.4182782,17 9,17 C4.58172176,17 1,13.4182782 1,9 C1,4.58172176 4.58172176,1 9,1 C10.3615196,1 11.671594,1.33968549 12.8381156,1.9788942 L13.3186611,1.10192441 C12.0366607,0.399437786 10.5649772,0 9,0 C4.02943701,0 0,4.02943701 0,9 C0,13.970563 4.02943701,18 9,18 C13.970563,18 18,13.970563 18,9 C18,7.58228619 17.6721989,6.24113446 17.0882557,5.0482037 L16.1900891,5.48785897 Z" id="Oval-20" fill="#D6A45E" sketch:type="MSShapeGroup"></path>
        <path d="M14.9436923,9.62307692 L14.9436923,8.26384615 L14.7516923,8.20107692 L13.2969231,7.72615385 L12.9087692,6.78876923 L13.6550769,5.20984615 L12.6936923,4.24846154 L12.5132308,4.33984615 L11.1489231,5.03307692 L10.2115385,4.64446154 L9.62261538,3 L8.26384615,3 L8.20107692,3.19246154 L7.72615385,4.64723077 L6.78923077,5.03538462 L5.20938462,4.28953846 L4.24846154,5.25046154 L4.33984615,5.43046154 L5.03261538,6.79569231 L4.64492308,7.73215385 L3,8.32107692 L3,9.68076923 L3.192,9.74353846 L4.64723077,10.2184615 L5.03538462,11.1553846 L4.28953846,12.7347692 L5.25,13.6961538 L5.43046154,13.6043077 L6.79523077,12.9115385 L7.73215385,13.2996923 L8.32107692,14.9441538 L9.68030769,14.9441538 L9.74307692,14.7521538 L10.218,13.2973846 L11.1549231,12.9092308 L12.7343077,13.656 L13.6956923,12.6946154 L13.6043077,12.5141538 L12.9110769,11.1498462 L13.2996923,10.2124615 L14.9436923,9.62307692 L14.9436923,9.62307692 Z M8.97184615,10.8756923 C7.92092308,10.8756923 7.06892308,10.0236923 7.06892308,8.97230769 C7.06892308,7.92092308 7.92092308,7.06892308 8.97184615,7.06892308 C10.0232308,7.06892308 10.8752308,7.92092308 10.8752308,8.97230769 C10.8752308,10.0236923 10.0232308,10.8756923 8.97184615,10.8756923 L8.97184615,10.8756923 Z" id="Shape" fill="#D6A45E" sketch:type="MSShapeGroup"></path>
    </g>
</svg>